<svg width="120" height="113" viewBox="0 0 120 113" fill="none" xmlns="http://www.w3.org/2000/svg">
<mask id="path-1-inside-1_669_83" fill="white">
<path fill-rule="evenodd" clip-rule="evenodd" d="M9.11531e-06 87.4277L24.3463 87.8302L24.7487 112.176L62.1765 74.7487L37.4277 50L9.11531e-06 87.4277Z"/>
</mask>
<path fill-rule="evenodd" clip-rule="evenodd" d="M9.11531e-06 87.4277L24.3463 87.8302L24.7487 112.176L62.1765 74.7487L37.4277 50L9.11531e-06 87.4277Z" fill="#01BE3F"/>
<path d="M9.11531e-06 87.4277L-1.4142 86.0135L-4.75016 89.3495L-0.0330502 89.4275L9.11531e-06 87.4277ZM24.3463 87.8302L26.346 87.7972L26.314 85.8625L24.3793 85.8305L24.3463 87.8302ZM24.7487 112.176L22.749 112.21L22.827 116.927L26.163 113.591L24.7487 112.176ZM62.1765 74.7487L63.5907 76.163L65.0049 74.7487L63.5907 73.3345L62.1765 74.7487ZM37.4277 50L38.8419 48.5858L37.4277 47.1716L36.0135 48.5858L37.4277 50ZM-0.0330502 89.4275L24.3132 89.8299L24.3793 85.8305L0.0330684 85.428L-0.0330502 89.4275ZM22.3465 87.8633L22.749 112.21L26.7485 112.143L26.346 87.7972L22.3465 87.8633ZM60.7623 73.3345L23.3345 110.762L26.163 113.591L63.5907 76.163L60.7623 73.3345ZM36.0135 51.4142L60.7623 76.163L63.5907 73.3345L38.8419 48.5858L36.0135 51.4142ZM1.41422 88.8419L38.8419 51.4142L36.0135 48.5858L-1.4142 86.0135L1.41422 88.8419Z" fill="black" mask="url(#path-1-inside-1_669_83)"/>
<mask id="path-3-inside-2_669_83" fill="white">
<path fill-rule="evenodd" clip-rule="evenodd" d="M94.4277 112.177L94.8302 87.8303L119.176 87.4278L81.7487 50L57 74.7488L94.4277 112.177Z"/>
</mask>
<path fill-rule="evenodd" clip-rule="evenodd" d="M94.4277 112.177L94.8302 87.8303L119.176 87.4278L81.7487 50L57 74.7488L94.4277 112.177Z" fill="#01BE3F"/>
<path d="M94.4277 112.177L93.0135 113.591L96.3495 116.927L96.4275 112.21L94.4277 112.177ZM94.8302 87.8303L94.7972 85.8305L92.8625 85.8625L92.8305 87.7972L94.8302 87.8303ZM119.176 87.4278L119.21 89.4275L123.927 89.3495L120.591 86.0136L119.176 87.4278ZM81.7487 50L83.163 48.5858L81.7487 47.1716L80.3345 48.5858L81.7487 50ZM57 74.7488L55.5858 73.3346L54.1716 74.7488L55.5858 76.163L57 74.7488ZM96.4275 112.21L96.8299 87.8633L92.8305 87.7972L92.428 112.143L96.4275 112.21ZM94.8633 89.83L119.21 89.4275L119.143 85.428L94.7972 85.8305L94.8633 89.83ZM80.3345 51.4143L117.762 88.842L120.591 86.0136L83.163 48.5858L80.3345 51.4143ZM58.4142 76.163L83.163 51.4143L80.3345 48.5858L55.5858 73.3346L58.4142 76.163ZM95.8419 110.762L58.4142 73.3346L55.5858 76.163L93.0135 113.591L95.8419 110.762Z" fill="black" mask="url(#path-3-inside-2_669_83)"/>
<mask id="path-5-inside-3_669_83" fill="white">
<path fill-rule="evenodd" clip-rule="evenodd" d="M52.1144 1.67922C55.4732 -0.559741 59.8488 -0.559738 63.2076 1.67922C66.0935 3.60295 69.5055 4.58323 72.9724 4.48468L74.1212 4.45202C78.177 4.33673 81.8972 6.66616 83.5447 10.3527L83.6947 10.6884C84.7943 13.1488 86.7885 15.0987 89.2729 16.1427C93.0287 17.721 95.456 21.4022 95.4138 25.4559C95.3818 28.5298 96.2241 31.5495 97.8425 34.1631L98.3475 34.9786C100.493 38.443 100.32 42.8636 97.9116 46.1523C96.1217 48.5961 95.3344 51.6321 95.7114 54.6378L95.836 55.6318C96.3411 59.6592 94.3462 63.5969 90.7905 65.5909C88.6455 66.7938 87.0922 68.8287 86.4973 71.2149L86.1696 72.5296C84.9597 77.3827 80.3223 80.5868 75.3255 80.0219C71.5034 79.5898 67.6515 80.523 64.451 82.6565L63.2071 83.4857C59.8483 85.7246 55.4727 85.7246 52.1139 83.4857L47.3963 80.3409C47.2355 80.2337 47.0417 80.1913 46.8485 80.1968L39.4873 80.4067C34.4565 80.5501 30.102 76.9634 29.3081 72.0223L29.1433 70.9962C28.7452 68.5184 27.1508 66.3963 24.8818 65.3242C21.1974 63.5832 18.933 59.7974 19.1538 55.7475C19.3346 52.4314 18.494 49.1396 16.7454 46.3161L16.4976 45.9158C14.3522 42.4515 14.5245 38.0309 16.9332 34.7421C19.4298 31.3334 21.0265 27.3501 21.5758 23.1608L21.7098 22.1391C22.236 18.1255 25.1495 14.8245 29.0838 13.7844C29.9569 13.5535 30.6922 12.9652 31.109 12.164L32.2868 9.89959C34.1496 6.31855 37.9984 4.21371 42.0378 4.567C45.3249 4.8545 48.6119 4.01395 51.3575 2.18377L52.1144 1.67922Z"/>
</mask>
<path fill-rule="evenodd" clip-rule="evenodd" d="M52.1144 1.67922C55.4732 -0.559741 59.8488 -0.559738 63.2076 1.67922C66.0935 3.60295 69.5055 4.58323 72.9724 4.48468L74.1212 4.45202C78.177 4.33673 81.8972 6.66616 83.5447 10.3527L83.6947 10.6884C84.7943 13.1488 86.7885 15.0987 89.2729 16.1427C93.0287 17.721 95.456 21.4022 95.4138 25.4559C95.3818 28.5298 96.2241 31.5495 97.8425 34.1631L98.3475 34.9786C100.493 38.443 100.32 42.8636 97.9116 46.1523C96.1217 48.5961 95.3344 51.6321 95.7114 54.6378L95.836 55.6318C96.3411 59.6592 94.3462 63.5969 90.7905 65.5909C88.6455 66.7938 87.0922 68.8287 86.4973 71.2149L86.1696 72.5296C84.9597 77.3827 80.3223 80.5868 75.3255 80.0219C71.5034 79.5898 67.6515 80.523 64.451 82.6565L63.2071 83.4857C59.8483 85.7246 55.4727 85.7246 52.1139 83.4857L47.3963 80.3409C47.2355 80.2337 47.0417 80.1913 46.8485 80.1968L39.4873 80.4067C34.4565 80.5501 30.102 76.9634 29.3081 72.0223L29.1433 70.9962C28.7452 68.5184 27.1508 66.3963 24.8818 65.3242C21.1974 63.5832 18.933 59.7974 19.1538 55.7475C19.3346 52.4314 18.494 49.1396 16.7454 46.3161L16.4976 45.9158C14.3522 42.4515 14.5245 38.0309 16.9332 34.7421C19.4298 31.3334 21.0265 27.3501 21.5758 23.1608L21.7098 22.1391C22.236 18.1255 25.1495 14.8245 29.0838 13.7844C29.9569 13.5535 30.6922 12.9652 31.109 12.164L32.2868 9.89959C34.1496 6.31855 37.9984 4.21371 42.0378 4.567C45.3249 4.8545 48.6119 4.01395 51.3575 2.18377L52.1144 1.67922Z" fill="#E18D5C"/>
<path d="M52.1144 1.67922L53.2237 3.34337V3.34337L52.1144 1.67922ZM74.1212 4.45202L74.178 6.45122L74.1212 4.45202ZM83.5447 10.3527L85.3707 9.53668V9.53668L83.5447 10.3527ZM98.3475 34.9786L96.6472 36.0316L98.3475 34.9786ZM95.836 55.6318L93.8515 55.8806V55.8806L95.836 55.6318ZM86.1696 72.5296L88.1102 73.0134L86.1696 72.5296ZM63.2071 83.4857L62.0978 81.8215L63.2071 83.4857ZM52.1139 83.4857L51.0046 85.1498L52.1139 83.4857ZM39.4873 80.4067L39.5443 82.4059L39.4873 80.4067ZM29.3081 72.0223L27.3335 72.3396L29.3081 72.0223ZM16.4976 45.9158L18.1979 44.8628H18.1979L16.4976 45.9158ZM21.7098 22.1391L23.6928 22.3991L21.7098 22.1391ZM32.2868 9.89959L30.5125 8.97665L32.2868 9.89959ZM47.3963 80.3409L48.5056 78.6767L47.3963 80.3409ZM64.451 82.6565L63.3416 80.9924L64.451 82.6565ZM86.4973 71.2149L84.5567 70.7311L86.4973 71.2149ZM31.109 12.164L29.3346 11.2411L31.109 12.164ZM95.7114 54.6378L93.7269 54.8867L95.7114 54.6378ZM97.8425 34.1631L96.1421 35.2161L97.8425 34.1631ZM83.6947 10.6884L85.5207 9.8724L83.6947 10.6884ZM64.3169 0.0150631C60.2863 -2.67169 55.0356 -2.67169 51.0051 0.0150611L53.2237 3.34337C55.9108 1.55221 59.4112 1.55221 62.0982 3.34338L64.3169 0.0150631ZM74.0644 2.45283L72.9156 2.48549L73.0292 6.48387L74.178 6.45122L74.0644 2.45283ZM85.3707 9.53668C83.3907 5.10633 78.9242 2.31469 74.0644 2.45283L74.178 6.45122C77.4299 6.35878 80.4036 8.226 81.7187 11.1687L85.3707 9.53668ZM85.5207 9.8724L85.3707 9.53668L81.7187 11.1687L81.8688 11.5044L85.5207 9.8724ZM97.4137 25.4767C97.4644 20.605 94.548 16.19 90.0477 14.2989L88.4981 17.9866C91.5095 19.252 93.4476 22.1994 93.4139 25.4351L97.4137 25.4767ZM100.048 33.9257L99.5429 33.1101L96.1421 35.2161L96.6472 36.0316L100.048 33.9257ZM99.5251 47.3341C102.415 43.3881 102.623 38.0834 100.048 33.9257L96.6472 36.0316C98.3631 38.8026 98.2255 42.339 96.2981 44.9705L99.5251 47.3341ZM97.8205 55.3829L97.6958 54.389L93.7269 54.8867L93.8515 55.8806L97.8205 55.3829ZM91.7688 67.3353C96.0299 64.9457 98.4273 60.2222 97.8205 55.3829L93.8515 55.8806C94.2548 59.0962 92.6624 62.2481 89.8123 63.8465L91.7688 67.3353ZM88.1102 73.0134L88.4379 71.6987L84.5567 70.7311L84.2289 72.0459L88.1102 73.0134ZM75.1008 82.0093C81.086 82.6858 86.6557 78.8478 88.1102 73.0134L84.2289 72.0459C83.2638 75.9176 79.5586 78.4877 75.5502 78.0346L75.1008 82.0093ZM64.3164 85.1498L65.5603 84.3207L63.3416 80.9924L62.0978 81.8215L64.3164 85.1498ZM51.0046 85.1498C55.0352 87.8366 60.2859 87.8366 64.3164 85.1498L62.0978 81.8215C59.4107 83.6127 55.9103 83.6127 53.2233 81.8215L51.0046 85.1498ZM46.2869 82.0051L51.0046 85.1498L53.2233 81.8215L48.5056 78.6767L46.2869 82.0051ZM39.5443 82.4059L46.9055 82.196L46.7915 78.1976L39.4303 78.4075L39.5443 82.4059ZM27.3335 72.3396C28.288 78.2804 33.519 82.5777 39.5443 82.4059L39.4303 78.4075C35.3941 78.5226 31.9161 75.6465 31.2828 71.7051L27.3335 72.3396ZM27.1686 71.3134L27.3335 72.3396L31.2828 71.7051L31.1179 70.6789L27.1686 71.3134ZM25.7363 63.5159C22.7824 62.1201 20.9746 59.0893 21.1508 55.8564L17.1568 55.6386C16.8915 60.5055 19.6124 65.0462 24.0274 67.1325L25.7363 63.5159ZM14.7972 46.9688L15.0451 47.3691L18.4458 45.2631L18.1979 44.8628L14.7972 46.9688ZM15.3197 33.5604C12.4296 37.5064 12.2224 42.8111 14.7972 46.9688L18.1979 44.8628C16.4819 42.0919 16.6194 38.5554 18.5468 35.9239L15.3197 33.5604ZM19.7267 21.8791L19.5928 22.9008L23.5588 23.4208L23.6928 22.3991L19.7267 21.8791ZM28.5726 11.8508C23.8591 13.097 20.3592 17.055 19.7267 21.8791L23.6928 22.3991C24.1128 19.1961 26.44 16.5521 29.595 15.7179L28.5726 11.8508ZM30.5125 8.97665L29.3346 11.2411L32.8833 13.0869L34.0611 10.8225L30.5125 8.97665ZM42.2121 2.57461C37.3714 2.15124 32.7509 4.67348 30.5125 8.97665L34.0611 10.8225C35.5483 7.96361 38.6254 6.27618 41.8636 6.5594L42.2121 2.57461ZM51.0051 0.0150606L50.2482 0.51961L52.4668 3.84792L53.2237 3.34337L51.0051 0.0150606ZM41.8636 6.5594C45.6034 6.88649 49.3431 5.93017 52.4668 3.84792L50.2482 0.51961C47.8807 2.09772 45.0465 2.82251 42.2121 2.57461L41.8636 6.5594ZM48.5056 78.6767C47.9264 78.2907 47.3005 78.1831 46.7915 78.1977L46.9056 82.196C46.7829 82.1995 46.5445 82.1767 46.2869 82.0051L48.5056 78.6767ZM75.5502 78.0346C71.2592 77.5495 66.9348 78.5972 63.3416 80.9924L65.5603 84.3207C68.3682 82.4489 71.7476 81.6302 75.1008 82.0093L75.5502 78.0346ZM89.8123 63.8465C87.1865 65.319 85.2849 67.81 84.5567 70.7311L88.4379 71.6987C88.8994 69.8473 90.1046 68.2686 91.7688 67.3353L89.8123 63.8465ZM29.595 15.7179C31.0127 15.3431 32.2066 14.3879 32.8833 13.0869L29.3346 11.2411C29.1778 11.5426 28.9012 11.7639 28.5726 11.8508L29.595 15.7179ZM96.2981 44.9705C94.2064 47.8264 93.2864 51.3742 93.7269 54.8867L97.6958 54.389C97.3824 51.89 98.0369 49.3659 99.5251 47.3341L96.2981 44.9705ZM18.5468 35.9239C21.242 32.2438 22.9659 27.9436 23.5588 23.4208L19.5928 22.9008C19.0872 26.7567 17.6176 30.4229 15.3197 33.5604L18.5468 35.9239ZM93.4139 25.4351C93.3779 28.8881 94.3241 32.2802 96.1421 35.2161L99.5429 33.1101C98.124 30.8189 97.3856 28.1716 97.4137 25.4767L93.4139 25.4351ZM21.1508 55.8564C21.3539 52.1317 20.4097 48.4344 18.4458 45.2631L15.0451 47.3691C16.5782 49.8447 17.3153 52.731 17.1568 55.6386L21.1508 55.8564ZM81.8688 11.5044C83.1755 14.4284 85.5455 16.7458 88.4981 17.9866L90.0477 14.2989C88.0315 13.4516 86.413 11.8691 85.5207 9.8724L81.8688 11.5044ZM31.1179 70.6789C30.6152 67.5498 28.6017 64.8699 25.7363 63.5159L24.0274 67.1325C25.6999 67.9228 26.8751 69.487 27.1686 71.3134L31.1179 70.6789ZM62.0982 3.34338C65.3288 5.49685 69.1483 6.59419 73.0292 6.48387L72.9156 2.48549C69.8627 2.57227 66.8581 1.70906 64.3169 0.0150633L62.0982 3.34338Z" fill="black" mask="url(#path-5-inside-3_669_83)"/>
<circle cx="58" cy="43" r="29" fill="#D67D44" stroke="black" stroke-width="2"/>
<mask id="path-8-outside-4_669_83" maskUnits="userSpaceOnUse" x="46" y="25" width="25" height="37" fill="black">
<rect fill="white" x="46" y="25" width="25" height="37"/>
<path d="M56.5728 59.5333C53.6573 59.5333 50.955 58.7422 48.4661 57.16V52.7867C49.7106 53.7289 51.115 54.2 52.6795 54.2C53.7817 54.2 54.7061 54.0756 55.4528 53.8267C56.1995 53.56 56.7506 53.1956 57.1061 52.7333C57.4617 52.2711 57.7017 51.8089 57.8261 51.3467C57.9684 50.8844 58.0395 50.3511 58.0395 49.7467C58.0395 46.6711 56.2173 45.1333 52.5728 45.1333H51.8795V41.48H52.2261C54.1817 41.48 55.6395 41.1956 56.5995 40.6267C57.5595 40.04 58.0395 38.9289 58.0395 37.2933C58.0395 35.6933 57.5506 34.5289 56.5728 33.8C55.595 33.0533 54.2973 32.68 52.6795 32.68C51.115 32.68 49.7106 33.1511 48.4661 34.0933V29.72C50.9906 28.1022 53.6928 27.2933 56.5728 27.2933C58.5284 27.2933 60.2173 27.5156 61.6395 27.96C63.0795 28.4044 64.2173 29.0356 65.0528 29.8533C65.9061 30.6711 66.5284 31.6044 66.9195 32.6533C67.3284 33.7022 67.5328 34.8844 67.5328 36.2C67.5328 40.1467 65.4173 42.2978 61.1861 42.6533C63.4617 42.8311 65.2661 43.64 66.5995 45.08C67.9328 46.5022 68.5995 48.5467 68.5995 51.2133C68.5995 53.56 67.5506 55.5333 65.4528 57.1333C63.355 58.7333 60.395 59.5333 56.5728 59.5333Z"/>
</mask>
<path d="M56.5728 59.5333C53.6573 59.5333 50.955 58.7422 48.4661 57.16V52.7867C49.7106 53.7289 51.115 54.2 52.6795 54.2C53.7817 54.2 54.7061 54.0756 55.4528 53.8267C56.1995 53.56 56.7506 53.1956 57.1061 52.7333C57.4617 52.2711 57.7017 51.8089 57.8261 51.3467C57.9684 50.8844 58.0395 50.3511 58.0395 49.7467C58.0395 46.6711 56.2173 45.1333 52.5728 45.1333H51.8795V41.48H52.2261C54.1817 41.48 55.6395 41.1956 56.5995 40.6267C57.5595 40.04 58.0395 38.9289 58.0395 37.2933C58.0395 35.6933 57.5506 34.5289 56.5728 33.8C55.595 33.0533 54.2973 32.68 52.6795 32.68C51.115 32.68 49.7106 33.1511 48.4661 34.0933V29.72C50.9906 28.1022 53.6928 27.2933 56.5728 27.2933C58.5284 27.2933 60.2173 27.5156 61.6395 27.96C63.0795 28.4044 64.2173 29.0356 65.0528 29.8533C65.9061 30.6711 66.5284 31.6044 66.9195 32.6533C67.3284 33.7022 67.5328 34.8844 67.5328 36.2C67.5328 40.1467 65.4173 42.2978 61.1861 42.6533C63.4617 42.8311 65.2661 43.64 66.5995 45.08C67.9328 46.5022 68.5995 48.5467 68.5995 51.2133C68.5995 53.56 67.5506 55.5333 65.4528 57.1333C63.355 58.7333 60.395 59.5333 56.5728 59.5333Z" fill="white"/>
<path d="M48.4661 57.16H46.4661V58.2585L47.3932 58.8478L48.4661 57.16ZM48.4661 52.7867L49.6734 51.1922L46.4661 48.7638V52.7867H48.4661ZM55.4528 53.8267L56.0853 55.724L56.1055 55.7173L56.1255 55.7102L55.4528 53.8267ZM57.1061 52.7333L58.6914 53.9528L57.1061 52.7333ZM57.8261 51.3467L55.9146 50.7585L55.9041 50.7924L55.8949 50.8267L57.8261 51.3467ZM51.8795 45.1333H49.8795V47.1333H51.8795V45.1333ZM51.8795 41.48V39.48H49.8795V41.48H51.8795ZM56.5995 40.6267L57.6191 42.3472L57.6308 42.3403L57.6424 42.3332L56.5995 40.6267ZM56.5728 33.8L55.359 35.3895L55.3682 35.3966L55.3775 35.4035L56.5728 33.8ZM48.4661 34.0933H46.4661V38.1162L49.6734 35.6879L48.4661 34.0933ZM48.4661 29.72L47.387 28.0361L46.4661 28.6262V29.72H48.4661ZM61.6395 27.96L61.0429 29.869L61.0497 29.871L61.6395 27.96ZM65.0528 29.8533L63.6539 31.2827L63.6614 31.29L63.669 31.2973L65.0528 29.8533ZM66.9195 32.6533L65.0455 33.3521L65.0507 33.366L65.0561 33.3797L66.9195 32.6533ZM61.1861 42.6533L61.0187 40.6604L61.0304 44.6473L61.1861 42.6533ZM66.5995 45.08L65.1319 46.4388L65.1404 46.4479L66.5995 45.08ZM65.4528 57.1333L66.6657 58.7236L66.6657 58.7236L65.4528 57.1333ZM56.5728 57.5333C54.0419 57.5333 51.7112 56.853 49.5391 55.4722L47.3932 58.8478C50.1989 60.6314 53.2726 61.5333 56.5728 61.5333V57.5333ZM50.4661 57.16V52.7867H46.4661V57.16H50.4661ZM47.2589 54.3812C48.8517 55.5872 50.6802 56.2 52.6795 56.2V52.2C51.5498 52.2 50.5695 51.8706 49.6734 51.1922L47.2589 54.3812ZM52.6795 56.2C53.9175 56.2 55.0711 56.0621 56.0853 55.724L54.8204 51.9293C54.3412 52.089 53.6459 52.2 52.6795 52.2V56.2ZM56.1255 55.7102C57.1077 55.3594 58.0316 54.8105 58.6914 53.9528L55.5209 51.5139C55.4696 51.5806 55.2913 51.7606 54.7801 51.9432L56.1255 55.7102ZM58.6914 53.9528C59.1731 53.3266 59.5515 52.6313 59.7574 51.8666L55.8949 50.8267C55.8519 50.9865 55.7503 51.2156 55.5209 51.5139L58.6914 53.9528ZM59.7377 51.9348C59.9511 51.2414 60.0395 50.503 60.0395 49.7467H56.0395C56.0395 50.1993 55.9857 50.5275 55.9146 50.7585L59.7377 51.9348ZM60.0395 49.7467C60.0395 47.8032 59.4477 46.0114 57.9627 44.7582C56.5427 43.5599 54.6283 43.1333 52.5728 43.1333V47.1333C54.1618 47.1333 54.9807 47.4757 55.3829 47.8151C55.7202 48.0997 56.0395 48.6146 56.0395 49.7467H60.0395ZM52.5728 43.1333H51.8795V47.1333H52.5728V43.1333ZM53.8795 45.1333V41.48H49.8795V45.1333H53.8795ZM51.8795 43.48H52.2261V39.48H51.8795V43.48ZM52.2261 43.48C54.3057 43.48 56.197 43.19 57.6191 42.3472L55.5799 38.9061C55.082 39.2011 54.0577 39.48 52.2261 39.48V43.48ZM57.6424 42.3332C59.4412 41.234 60.0395 39.2812 60.0395 37.2933H56.0395C56.0395 38.5766 55.6778 38.846 55.5566 38.9201L57.6424 42.3332ZM60.0395 37.2933C60.0395 35.2769 59.403 33.4152 57.7681 32.1965L55.3775 35.4035C55.6982 35.6426 56.0395 36.1098 56.0395 37.2933H60.0395ZM57.7866 32.2105C56.3644 31.1244 54.5978 30.68 52.6795 30.68V34.68C53.9968 34.68 54.8257 34.9823 55.359 35.3895L57.7866 32.2105ZM52.6795 30.68C50.6802 30.68 48.8517 31.2928 47.2589 32.4988L49.6734 35.6879C50.5695 35.0094 51.5498 34.68 52.6795 34.68V30.68ZM50.4661 34.0933V29.72H46.4661V34.0933H50.4661ZM49.5453 31.4039C51.7616 29.9836 54.0916 29.2933 56.5728 29.2933V25.2933C53.2941 25.2933 50.2196 26.2209 47.387 28.0361L49.5453 31.4039ZM56.5728 29.2933C58.3854 29.2933 59.8633 29.5003 61.0429 29.869L62.236 26.051C60.5712 25.5308 58.6713 25.2933 56.5728 25.2933V29.2933ZM61.0497 29.871C62.2707 30.2479 63.102 30.7425 63.6539 31.2827L66.4517 28.424C65.3325 27.3286 63.8883 26.561 62.2293 26.049L61.0497 29.871ZM63.669 31.2973C64.3174 31.9187 64.7655 32.601 65.0455 33.3521L68.7934 31.9546C68.2913 30.6078 67.4949 29.4236 66.4366 28.4094L63.669 31.2973ZM65.0561 33.3797C65.3608 34.1616 65.5328 35.0918 65.5328 36.2H69.5328C69.5328 34.6771 69.2959 33.2429 68.7829 31.9269L65.0561 33.3797ZM65.5328 36.2C65.5328 37.8164 65.1072 38.7741 64.5202 39.371C63.9121 39.9893 62.85 40.5065 61.0187 40.6604L61.3536 44.6463C63.7534 44.4446 65.8647 43.7085 67.3721 42.1757C68.9006 40.6215 69.5328 38.5303 69.5328 36.2H65.5328ZM61.0304 44.6473C62.8917 44.7927 64.1956 45.4276 65.132 46.4388L68.067 43.7212C66.3367 41.8524 64.0317 40.8695 61.3419 40.6594L61.0304 44.6473ZM65.1404 46.4479C66.0153 47.3811 66.5995 48.8653 66.5995 51.2133H70.5995C70.5995 48.228 69.8503 45.6234 68.0586 43.7121L65.1404 46.4479ZM66.5995 51.2133C66.5995 52.8526 65.9122 54.2677 64.2399 55.5431L66.6657 58.7236C69.189 56.799 70.5995 54.2674 70.5995 51.2133H66.5995ZM64.2399 55.5431C62.6162 56.7815 60.1466 57.5333 56.5728 57.5333V61.5333C60.6435 61.5333 64.0938 60.6852 66.6657 58.7236L64.2399 55.5431Z" fill="black" mask="url(#path-8-outside-4_669_83)"/>
<path fill-rule="evenodd" clip-rule="evenodd" d="M78.3939 28.0122C79.1553 26.8605 76.4113 23.7046 72.265 20.9634C68.1186 18.2222 64.1401 16.9337 63.3786 18.0854C62.7209 19.0802 64.379 19.9624 65.4871 20.4032C66.9145 20.971 68.5758 21.8466 70.265 22.9634C71.9544 24.0803 73.411 25.266 74.4925 26.3569C75.6079 27.4821 77.5201 29.3339 78.3939 28.0122Z" fill="white"/>
<ellipse cx="79.739" cy="29.788" rx="1" ry="1.5" transform="rotate(138.97 79.739 29.788)" fill="white"/>
</svg>
