<svg width="120" height="113" viewBox="0 0 120 113" fill="none" xmlns="http://www.w3.org/2000/svg">
<mask id="path-1-inside-1_669_56" fill="white">
<path fill-rule="evenodd" clip-rule="evenodd" d="M9.11531e-06 87.4277L24.3463 87.8302L24.7487 112.176L62.1765 74.7487L37.4277 50L9.11531e-06 87.4277Z"/>
</mask>
<path fill-rule="evenodd" clip-rule="evenodd" d="M9.11531e-06 87.4277L24.3463 87.8302L24.7487 112.176L62.1765 74.7487L37.4277 50L9.11531e-06 87.4277Z" fill="#C3433A"/>
<path d="M9.11531e-06 87.4277L-1.4142 86.0135L-4.75016 89.3495L-0.0330499 89.4275L9.11531e-06 87.4277ZM24.3463 87.8302L26.346 87.7972L26.314 85.8625L24.3793 85.8305L24.3463 87.8302ZM24.7487 112.176L22.749 112.21L22.827 116.927L26.163 113.591L24.7487 112.176ZM62.1765 74.7487L63.5907 76.163L65.0049 74.7487L63.5907 73.3345L62.1765 74.7487ZM37.4277 50L38.8419 48.5858L37.4277 47.1716L36.0135 48.5858L37.4277 50ZM-0.0330499 89.4275L24.3132 89.8299L24.3793 85.8305L0.0330682 85.428L-0.0330499 89.4275ZM22.3465 87.8633L22.749 112.21L26.7485 112.143L26.346 87.7972L22.3465 87.8633ZM60.7623 73.3345L23.3345 110.762L26.163 113.591L63.5907 76.163L60.7623 73.3345ZM36.0135 51.4142L60.7623 76.163L63.5907 73.3345L38.8419 48.5858L36.0135 51.4142ZM1.41422 88.8419L38.8419 51.4142L36.0135 48.5858L-1.4142 86.0135L1.41422 88.8419Z" fill="black" mask="url(#path-1-inside-1_669_56)"/>
<mask id="path-3-inside-2_669_56" fill="white">
<path fill-rule="evenodd" clip-rule="evenodd" d="M94.4277 112.177L94.8302 87.8303L119.176 87.4278L81.7487 50L57 74.7488L94.4277 112.177Z"/>
</mask>
<path fill-rule="evenodd" clip-rule="evenodd" d="M94.4277 112.177L94.8302 87.8303L119.176 87.4278L81.7487 50L57 74.7488L94.4277 112.177Z" fill="#C3433A"/>
<path d="M94.4277 112.177L93.0135 113.591L96.3495 116.927L96.4275 112.21L94.4277 112.177ZM94.8302 87.8303L94.7972 85.8305L92.8625 85.8625L92.8305 87.7972L94.8302 87.8303ZM119.176 87.4278L119.21 89.4275L123.927 89.3495L120.591 86.0136L119.176 87.4278ZM81.7487 50L83.163 48.5858L81.7487 47.1716L80.3345 48.5858L81.7487 50ZM57 74.7488L55.5858 73.3346L54.1716 74.7488L55.5858 76.163L57 74.7488ZM96.4275 112.21L96.8299 87.8633L92.8305 87.7972L92.428 112.143L96.4275 112.21ZM94.8633 89.83L119.21 89.4275L119.143 85.428L94.7972 85.8305L94.8633 89.83ZM80.3345 51.4143L117.762 88.842L120.591 86.0136L83.163 48.5858L80.3345 51.4143ZM58.4142 76.163L83.163 51.4143L80.3345 48.5858L55.5858 73.3346L58.4142 76.163ZM95.8419 110.762L58.4142 73.3346L55.5858 76.163L93.0135 113.591L95.8419 110.762Z" fill="black" mask="url(#path-3-inside-2_669_56)"/>
<mask id="path-5-inside-3_669_56" fill="white">
<path fill-rule="evenodd" clip-rule="evenodd" d="M52.1144 1.67922C55.4732 -0.559741 59.8488 -0.559738 63.2076 1.67922V1.67922C66.0935 3.60295 69.5055 4.58323 72.9724 4.48468L74.1212 4.45202C78.177 4.33673 81.8972 6.66616 83.5447 10.3527L83.6947 10.6884C84.7943 13.1488 86.7885 15.0987 89.2729 16.1427V16.1427C93.0287 17.721 95.456 21.4022 95.4138 25.4559V25.4559C95.3818 28.5298 96.2241 31.5495 97.8425 34.1631L98.3475 34.9786C100.493 38.443 100.32 42.8636 97.9116 46.1523V46.1523C96.1217 48.5961 95.3344 51.6321 95.7114 54.6378L95.836 55.6318C96.3411 59.6592 94.3462 63.5969 90.7905 65.5909V65.5909C88.6455 66.7938 87.0922 68.8287 86.4973 71.2149L86.1696 72.5296C84.9597 77.3827 80.3223 80.5868 75.3255 80.0219V80.0219C71.5034 79.5898 67.6515 80.523 64.451 82.6565L63.2071 83.4857C59.8483 85.7246 55.4727 85.7246 52.1139 83.4857L47.3963 80.3409C47.2355 80.2337 47.0417 80.1913 46.8485 80.1968V80.1968L39.4873 80.4067C34.4565 80.5501 30.102 76.9634 29.3081 72.0223L29.1433 70.9962C28.7452 68.5184 27.1508 66.3963 24.8818 65.3242V65.3242C21.1974 63.5832 18.933 59.7974 19.1538 55.7475V55.7475C19.3346 52.4314 18.494 49.1396 16.7454 46.3161L16.4976 45.9158C14.3522 42.4515 14.5245 38.0309 16.9332 34.7421V34.7421C19.4298 31.3334 21.0265 27.3501 21.5758 23.1608L21.7098 22.1391C22.236 18.1255 25.1495 14.8245 29.0838 13.7844V13.7844C29.9569 13.5535 30.6922 12.9652 31.109 12.164L32.2868 9.89959C34.1496 6.31855 37.9984 4.21371 42.0378 4.567V4.567C45.3249 4.8545 48.6119 4.01395 51.3575 2.18377L52.1144 1.67922Z"/>
</mask>
<path fill-rule="evenodd" clip-rule="evenodd" d="M52.1144 1.67922C55.4732 -0.559741 59.8488 -0.559738 63.2076 1.67922V1.67922C66.0935 3.60295 69.5055 4.58323 72.9724 4.48468L74.1212 4.45202C78.177 4.33673 81.8972 6.66616 83.5447 10.3527L83.6947 10.6884C84.7943 13.1488 86.7885 15.0987 89.2729 16.1427V16.1427C93.0287 17.721 95.456 21.4022 95.4138 25.4559V25.4559C95.3818 28.5298 96.2241 31.5495 97.8425 34.1631L98.3475 34.9786C100.493 38.443 100.32 42.8636 97.9116 46.1523V46.1523C96.1217 48.5961 95.3344 51.6321 95.7114 54.6378L95.836 55.6318C96.3411 59.6592 94.3462 63.5969 90.7905 65.5909V65.5909C88.6455 66.7938 87.0922 68.8287 86.4973 71.2149L86.1696 72.5296C84.9597 77.3827 80.3223 80.5868 75.3255 80.0219V80.0219C71.5034 79.5898 67.6515 80.523 64.451 82.6565L63.2071 83.4857C59.8483 85.7246 55.4727 85.7246 52.1139 83.4857L47.3963 80.3409C47.2355 80.2337 47.0417 80.1913 46.8485 80.1968V80.1968L39.4873 80.4067C34.4565 80.5501 30.102 76.9634 29.3081 72.0223L29.1433 70.9962C28.7452 68.5184 27.1508 66.3963 24.8818 65.3242V65.3242C21.1974 63.5832 18.933 59.7974 19.1538 55.7475V55.7475C19.3346 52.4314 18.494 49.1396 16.7454 46.3161L16.4976 45.9158C14.3522 42.4515 14.5245 38.0309 16.9332 34.7421V34.7421C19.4298 31.3334 21.0265 27.3501 21.5758 23.1608L21.7098 22.1391C22.236 18.1255 25.1495 14.8245 29.0838 13.7844V13.7844C29.9569 13.5535 30.6922 12.9652 31.109 12.164L32.2868 9.89959C34.1496 6.31855 37.9984 4.21371 42.0378 4.567V4.567C45.3249 4.8545 48.6119 4.01395 51.3575 2.18377L52.1144 1.67922Z" fill="#F5D270"/>
<path d="M52.1144 1.67922L53.2237 3.34337L53.2237 3.34337L52.1144 1.67922ZM74.1212 4.45202L74.178 6.45122L74.178 6.45122L74.1212 4.45202ZM83.5447 10.3527L85.3707 9.53668L85.3707 9.53668L83.5447 10.3527ZM98.3475 34.9786L96.6472 36.0316L96.6472 36.0316L98.3475 34.9786ZM95.836 55.6318L93.8515 55.8806L93.8515 55.8806L95.836 55.6318ZM86.1696 72.5296L88.1102 73.0134L86.1696 72.5296ZM63.2071 83.4857L62.0978 81.8215L62.0978 81.8215L63.2071 83.4857ZM52.1139 83.4857L51.0046 85.1498L51.0046 85.1498L52.1139 83.4857ZM39.4873 80.4067L39.5443 82.4059L39.5443 82.4059L39.4873 80.4067ZM29.3081 72.0223L27.3335 72.3396L27.3335 72.3396L29.3081 72.0223ZM16.4976 45.9158L18.1979 44.8628L18.1979 44.8628L16.4976 45.9158ZM21.7098 22.1391L23.6928 22.3991L21.7098 22.1391ZM32.2868 9.89959L30.5125 8.97665L32.2868 9.89959ZM47.3963 80.3409L48.5056 78.6767L47.3963 80.3409ZM64.451 82.6565L63.3416 80.9924L64.451 82.6565ZM86.4973 71.2149L84.5567 70.7311L86.4973 71.2149ZM31.109 12.164L29.3346 11.2411L31.109 12.164ZM95.7114 54.6378L93.7269 54.8867L95.7114 54.6378ZM97.8425 34.1631L96.1421 35.2161L97.8425 34.1631ZM83.6947 10.6884L85.5207 9.8724L83.6947 10.6884ZM64.3169 0.0150631C60.2863 -2.67169 55.0356 -2.67169 51.0051 0.0150611L53.2237 3.34337C55.9108 1.55221 59.4112 1.55221 62.0982 3.34338L64.3169 0.0150631ZM74.0644 2.45283L72.9156 2.48549L73.0292 6.48387L74.178 6.45122L74.0644 2.45283ZM85.3707 9.53668C83.3907 5.10633 78.9242 2.31469 74.0644 2.45283L74.178 6.45122C77.4299 6.35878 80.4036 8.226 81.7187 11.1687L85.3707 9.53668ZM85.5207 9.8724L85.3707 9.53668L81.7187 11.1687L81.8688 11.5044L85.5207 9.8724ZM97.4137 25.4767C97.4644 20.605 94.5479 16.19 90.0477 14.2989L88.4981 17.9866C91.5095 19.252 93.4476 22.1994 93.4139 25.4351L97.4137 25.4767ZM100.048 33.9257L99.5429 33.1101L96.1421 35.2161L96.6472 36.0316L100.048 33.9257ZM99.5251 47.3341C102.415 43.3881 102.623 38.0834 100.048 33.9257L96.6472 36.0316C98.3631 38.8026 98.2255 42.339 96.2981 44.9705L99.5251 47.3341ZM97.8205 55.3829L97.6958 54.389L93.7269 54.8867L93.8515 55.8806L97.8205 55.3829ZM91.7688 67.3353C96.0299 64.9457 98.4273 60.2222 97.8205 55.3829L93.8515 55.8806C94.2548 59.0962 92.6624 62.2481 89.8123 63.8465L91.7688 67.3353ZM88.1102 73.0134L88.4379 71.6987L84.5567 70.7311L84.2289 72.0459L88.1102 73.0134ZM75.1008 82.0093C81.086 82.6858 86.6557 78.8478 88.1102 73.0134L84.2289 72.0459C83.2638 75.9176 79.5586 78.4877 75.5502 78.0346L75.1008 82.0093ZM64.3164 85.1498L65.5603 84.3207L63.3416 80.9924L62.0978 81.8215L64.3164 85.1498ZM51.0046 85.1498C55.0352 87.8366 60.2859 87.8366 64.3164 85.1498L62.0978 81.8215C59.4107 83.6127 55.9103 83.6127 53.2233 81.8215L51.0046 85.1498ZM46.2869 82.0051L51.0046 85.1498L53.2233 81.8215L48.5056 78.6767L46.2869 82.0051ZM39.5443 82.4059L46.9055 82.196L46.7915 78.1977L39.4303 78.4075L39.5443 82.4059ZM27.3335 72.3396C28.288 78.2804 33.519 82.5777 39.5443 82.4059L39.4303 78.4075C35.3941 78.5226 31.9161 75.6465 31.2828 71.7051L27.3335 72.3396ZM27.1686 71.3134L27.3335 72.3396L31.2828 71.7051L31.1179 70.6789L27.1686 71.3134ZM25.7363 63.5159C22.7824 62.1201 20.9746 59.0893 21.1508 55.8564L17.1568 55.6386C16.8915 60.5055 19.6124 65.0462 24.0274 67.1325L25.7363 63.5159ZM14.7972 46.9688L15.0451 47.3691L18.4458 45.2631L18.1979 44.8628L14.7972 46.9688ZM15.3197 33.5604C12.4296 37.5064 12.2224 42.8111 14.7972 46.9688L18.1979 44.8628C16.4819 42.0919 16.6194 38.5554 18.5468 35.9239L15.3197 33.5604ZM19.7267 21.8791L19.5928 22.9008L23.5588 23.4208L23.6928 22.3991L19.7267 21.8791ZM28.5726 11.8508C23.8591 13.097 20.3592 17.055 19.7267 21.8791L23.6928 22.3991C24.1128 19.1961 26.44 16.5521 29.595 15.7179L28.5726 11.8508ZM30.5125 8.97665L29.3346 11.2411L32.8833 13.0869L34.0611 10.8225L30.5125 8.97665ZM42.2121 2.57461C37.3714 2.15124 32.7509 4.67348 30.5125 8.97665L34.0611 10.8225C35.5483 7.96361 38.6254 6.27618 41.8636 6.5594L42.2121 2.57461ZM51.0051 0.0150606L50.2482 0.51961L52.4668 3.84792L53.2237 3.34337L51.0051 0.0150606ZM41.8636 6.5594C45.6034 6.88649 49.3431 5.93017 52.4668 3.84792L50.2482 0.51961C47.8807 2.09772 45.0465 2.82251 42.2121 2.57461L41.8636 6.5594ZM48.5056 78.6767C47.9264 78.2907 47.3005 78.1831 46.7915 78.1977L46.9056 82.196C46.7829 82.1995 46.5445 82.1767 46.2869 82.0051L48.5056 78.6767ZM75.5502 78.0346C71.2592 77.5495 66.9348 78.5972 63.3416 80.9924L65.5603 84.3207C68.3682 82.4489 71.7476 81.6302 75.1008 82.0093L75.5502 78.0346ZM89.8123 63.8465C87.1865 65.319 85.2849 67.81 84.5567 70.7311L88.4379 71.6987C88.8994 69.8473 90.1046 68.2686 91.7688 67.3353L89.8123 63.8465ZM29.595 15.7179C31.0127 15.3431 32.2066 14.3879 32.8833 13.0869L29.3346 11.2411C29.1778 11.5426 28.9012 11.7639 28.5726 11.8508L29.595 15.7179ZM96.2981 44.9705C94.2064 47.8264 93.2864 51.3743 93.7269 54.8867L97.6958 54.389C97.3824 51.89 98.0369 49.3659 99.5251 47.3341L96.2981 44.9705ZM18.5468 35.9239C21.242 32.2438 22.9659 27.9436 23.5588 23.4208L19.5928 22.9008C19.0872 26.7567 17.6176 30.4229 15.3197 33.5604L18.5468 35.9239ZM93.4139 25.4351C93.3779 28.8881 94.3241 32.2802 96.1421 35.2161L99.5429 33.1101C98.124 30.8189 97.3856 28.1716 97.4137 25.4767L93.4139 25.4351ZM21.1508 55.8564C21.3539 52.1317 20.4097 48.4344 18.4458 45.2631L15.0451 47.3691C16.5782 49.8447 17.3153 52.731 17.1568 55.6386L21.1508 55.8564ZM81.8688 11.5044C83.1755 14.4284 85.5455 16.7458 88.4981 17.9866L90.0477 14.2989C88.0315 13.4516 86.413 11.8691 85.5207 9.8724L81.8688 11.5044ZM31.1179 70.6789C30.6152 67.5498 28.6017 64.8699 25.7363 63.5159L24.0274 67.1325C25.6999 67.9228 26.8751 69.487 27.1686 71.3134L31.1179 70.6789ZM62.0982 3.34338C65.3288 5.49685 69.1483 6.59419 73.0292 6.48387L72.9156 2.48549C69.8627 2.57227 66.8581 1.70906 64.3169 0.0150633L62.0982 3.34338Z" fill="black" mask="url(#path-5-inside-3_669_56)"/>
<circle cx="58" cy="43" r="29" fill="#F39F62" stroke="black" stroke-width="2"/>
<mask id="path-8-outside-4_669_56" maskUnits="userSpaceOnUse" x="47" y="25" width="19" height="36" fill="black">
<rect fill="white" x="47" y="25" width="19" height="36"/>
<path d="M54.0833 59V38.2L49.2567 38.7333V33.0533C50.2522 32.9111 51.0878 32.7511 51.7633 32.5733C52.4389 32.3956 53.15 32.12 53.8967 31.7467C54.6433 31.3733 55.2833 30.8578 55.8167 30.2C56.35 29.5422 56.7856 28.7333 57.1233 27.7733H63.0167V59H54.0833Z"/>
</mask>
<path d="M54.0833 59V38.2L49.2567 38.7333V33.0533C50.2522 32.9111 51.0878 32.7511 51.7633 32.5733C52.4389 32.3956 53.15 32.12 53.8967 31.7467C54.6433 31.3733 55.2833 30.8578 55.8167 30.2C56.35 29.5422 56.7856 28.7333 57.1233 27.7733H63.0167V59H54.0833Z" fill="white"/>
<path d="M54.0833 59H52.0833V61H54.0833V59ZM54.0833 38.2H56.0833V35.9668L53.8637 36.2121L54.0833 38.2ZM49.2567 38.7333H47.2567V40.9665L49.4763 40.7212L49.2567 38.7333ZM49.2567 33.0533L48.9738 31.0734L47.2567 31.3187V33.0533H49.2567ZM51.7633 32.5733L52.2723 34.5075L52.2723 34.5075L51.7633 32.5733ZM53.8967 31.7467L54.7911 33.5355L54.7911 33.5355L53.8967 31.7467ZM57.1233 27.7733V25.7733H55.7068L55.2367 27.1095L57.1233 27.7733ZM63.0167 27.7733H65.0167V25.7733H63.0167V27.7733ZM63.0167 59V61H65.0167V59H63.0167ZM56.0833 59V38.2H52.0833V59H56.0833ZM53.8637 36.2121L49.037 36.7454L49.4763 40.7212L54.303 40.1879L53.8637 36.2121ZM51.2567 38.7333V33.0533H47.2567V38.7333H51.2567ZM49.5395 35.0332C50.5813 34.8844 51.4979 34.7113 52.2723 34.5075L51.2543 30.6392C50.6777 30.7909 49.9232 30.9378 48.9738 31.0734L49.5395 35.0332ZM52.2723 34.5075C53.1038 34.2887 53.9443 33.9589 54.7911 33.5355L53.0022 29.9578C52.3557 30.2811 51.774 30.5024 51.2543 30.6392L52.2723 34.5075ZM54.7911 33.5355C55.7964 33.0329 56.66 32.3355 57.3702 31.4596L54.2632 28.9404C53.9066 29.3801 53.4903 29.7138 53.0022 29.9578L54.7911 33.5355ZM57.3702 31.4596C58.0737 30.592 58.611 29.571 59.01 28.4371L55.2367 27.1095C54.9601 27.8957 54.6263 28.4925 54.2632 28.9404L57.3702 31.4596ZM57.1233 29.7733H63.0167V25.7733H57.1233V29.7733ZM61.0167 27.7733V59H65.0167V27.7733H61.0167ZM63.0167 57H54.0833V61H63.0167V57Z" fill="black" mask="url(#path-8-outside-4_669_56)"/>
<path fill-rule="evenodd" clip-rule="evenodd" d="M78.3939 28.0122C79.1553 26.8605 76.4113 23.7046 72.265 20.9634C68.1186 18.2222 64.1401 16.9337 63.3786 18.0854V18.0854C62.7209 19.0802 64.379 19.9624 65.4871 20.4032C66.9145 20.971 68.5758 21.8466 70.265 22.9634C71.9544 24.0803 73.411 25.266 74.4925 26.3569C75.6079 27.4821 77.5201 29.3339 78.3939 28.0122V28.0122Z" fill="white"/>
<ellipse cx="79.739" cy="29.788" rx="1" ry="1.5" transform="rotate(138.97 79.739 29.788)" fill="white"/>
</svg>
