<svg width="120" height="113" viewBox="0 0 120 113" fill="none" xmlns="http://www.w3.org/2000/svg">
<mask id="path-1-inside-1_669_57" fill="white">
<path fill-rule="evenodd" clip-rule="evenodd" d="M9.11531e-06 87.4277L24.3463 87.8302L24.7487 112.176L62.1765 74.7487L37.4277 50L9.11531e-06 87.4277Z"/>
</mask>
<path fill-rule="evenodd" clip-rule="evenodd" d="M9.11531e-06 87.4277L24.3463 87.8302L24.7487 112.176L62.1765 74.7487L37.4277 50L9.11531e-06 87.4277Z" fill="#181FB0"/>
<path d="M9.11531e-06 87.4277L-1.4142 86.0135L-4.75016 89.3495L-0.0330502 89.4275L9.11531e-06 87.4277ZM24.3463 87.8302L26.346 87.7972L26.314 85.8625L24.3793 85.8305L24.3463 87.8302ZM24.7487 112.176L22.749 112.21L22.827 116.927L26.163 113.591L24.7487 112.176ZM62.1765 74.7487L63.5907 76.163L65.0049 74.7487L63.5907 73.3345L62.1765 74.7487ZM37.4277 50L38.8419 48.5858L37.4277 47.1716L36.0135 48.5858L37.4277 50ZM-0.0330502 89.4275L24.3132 89.8299L24.3793 85.8305L0.0330684 85.428L-0.0330502 89.4275ZM22.3465 87.8633L22.749 112.21L26.7485 112.143L26.346 87.7972L22.3465 87.8633ZM60.7623 73.3345L23.3345 110.762L26.163 113.591L63.5907 76.163L60.7623 73.3345ZM36.0135 51.4142L60.7623 76.163L63.5907 73.3345L38.8419 48.5858L36.0135 51.4142ZM1.41422 88.8419L38.8419 51.4142L36.0135 48.5858L-1.4142 86.0135L1.41422 88.8419Z" fill="black" mask="url(#path-1-inside-1_669_57)"/>
<mask id="path-3-inside-2_669_57" fill="white">
<path fill-rule="evenodd" clip-rule="evenodd" d="M94.4277 112.177L94.8302 87.8303L119.176 87.4278L81.7487 50L57 74.7488L94.4277 112.177Z"/>
</mask>
<path fill-rule="evenodd" clip-rule="evenodd" d="M94.4277 112.177L94.8302 87.8303L119.176 87.4278L81.7487 50L57 74.7488L94.4277 112.177Z" fill="#181FB0"/>
<path d="M94.4277 112.177L93.0135 113.591L96.3495 116.927L96.4275 112.21L94.4277 112.177ZM94.8302 87.8303L94.7972 85.8305L92.8625 85.8625L92.8305 87.7972L94.8302 87.8303ZM119.176 87.4278L119.21 89.4275L123.927 89.3495L120.591 86.0136L119.176 87.4278ZM81.7487 50L83.163 48.5858L81.7487 47.1716L80.3345 48.5858L81.7487 50ZM57 74.7488L55.5858 73.3346L54.1716 74.7488L55.5858 76.163L57 74.7488ZM96.4275 112.21L96.8299 87.8633L92.8305 87.7972L92.428 112.143L96.4275 112.21ZM94.8633 89.83L119.21 89.4275L119.143 85.428L94.7972 85.8305L94.8633 89.83ZM80.3345 51.4143L117.762 88.842L120.591 86.0136L83.163 48.5858L80.3345 51.4143ZM58.4142 76.163L83.163 51.4143L80.3345 48.5858L55.5858 73.3346L58.4142 76.163ZM95.8419 110.762L58.4142 73.3346L55.5858 76.163L93.0135 113.591L95.8419 110.762Z" fill="black" mask="url(#path-3-inside-2_669_57)"/>
<mask id="path-5-inside-3_669_57" fill="white">
<path fill-rule="evenodd" clip-rule="evenodd" d="M52.1144 1.67922C55.4732 -0.559741 59.8488 -0.559738 63.2076 1.67922C66.0935 3.60295 69.5055 4.58323 72.9724 4.48468L74.1212 4.45202C78.177 4.33673 81.8972 6.66616 83.5447 10.3527L83.6947 10.6884C84.7943 13.1488 86.7885 15.0987 89.2729 16.1427C93.0287 17.721 95.456 21.4022 95.4138 25.4559C95.3818 28.5298 96.2241 31.5495 97.8425 34.1631L98.3475 34.9786C100.493 38.443 100.32 42.8636 97.9116 46.1523C96.1217 48.5961 95.3344 51.6321 95.7114 54.6378L95.836 55.6318C96.3411 59.6592 94.3462 63.5969 90.7905 65.5909C88.6455 66.7938 87.0922 68.8287 86.4973 71.2149L86.1696 72.5296C84.9597 77.3827 80.3223 80.5868 75.3255 80.0219C71.5034 79.5898 67.6515 80.523 64.451 82.6565L63.2071 83.4857C59.8483 85.7246 55.4727 85.7246 52.1139 83.4857L47.3963 80.3409C47.2355 80.2337 47.0417 80.1913 46.8485 80.1968L39.4873 80.4067C34.4565 80.5501 30.102 76.9634 29.3081 72.0223L29.1433 70.9962C28.7452 68.5184 27.1508 66.3963 24.8818 65.3242C21.1974 63.5832 18.933 59.7974 19.1538 55.7475C19.3346 52.4314 18.494 49.1396 16.7454 46.3161L16.4976 45.9158C14.3522 42.4515 14.5245 38.0309 16.9332 34.7421C19.4298 31.3334 21.0265 27.3501 21.5758 23.1608L21.7098 22.1391C22.236 18.1255 25.1495 14.8245 29.0838 13.7844C29.9569 13.5535 30.6922 12.9652 31.109 12.164L32.2868 9.89959C34.1496 6.31855 37.9984 4.21371 42.0378 4.567C45.3249 4.8545 48.6119 4.01395 51.3575 2.18377L52.1144 1.67922Z"/>
</mask>
<path fill-rule="evenodd" clip-rule="evenodd" d="M52.1144 1.67922C55.4732 -0.559741 59.8488 -0.559738 63.2076 1.67922C66.0935 3.60295 69.5055 4.58323 72.9724 4.48468L74.1212 4.45202C78.177 4.33673 81.8972 6.66616 83.5447 10.3527L83.6947 10.6884C84.7943 13.1488 86.7885 15.0987 89.2729 16.1427C93.0287 17.721 95.456 21.4022 95.4138 25.4559C95.3818 28.5298 96.2241 31.5495 97.8425 34.1631L98.3475 34.9786C100.493 38.443 100.32 42.8636 97.9116 46.1523C96.1217 48.5961 95.3344 51.6321 95.7114 54.6378L95.836 55.6318C96.3411 59.6592 94.3462 63.5969 90.7905 65.5909C88.6455 66.7938 87.0922 68.8287 86.4973 71.2149L86.1696 72.5296C84.9597 77.3827 80.3223 80.5868 75.3255 80.0219C71.5034 79.5898 67.6515 80.523 64.451 82.6565L63.2071 83.4857C59.8483 85.7246 55.4727 85.7246 52.1139 83.4857L47.3963 80.3409C47.2355 80.2337 47.0417 80.1913 46.8485 80.1968L39.4873 80.4067C34.4565 80.5501 30.102 76.9634 29.3081 72.0223L29.1433 70.9962C28.7452 68.5184 27.1508 66.3963 24.8818 65.3242C21.1974 63.5832 18.933 59.7974 19.1538 55.7475C19.3346 52.4314 18.494 49.1396 16.7454 46.3161L16.4976 45.9158C14.3522 42.4515 14.5245 38.0309 16.9332 34.7421C19.4298 31.3334 21.0265 27.3501 21.5758 23.1608L21.7098 22.1391C22.236 18.1255 25.1495 14.8245 29.0838 13.7844C29.9569 13.5535 30.6922 12.9652 31.109 12.164L32.2868 9.89959C34.1496 6.31855 37.9984 4.21371 42.0378 4.567C45.3249 4.8545 48.6119 4.01395 51.3575 2.18377L52.1144 1.67922Z" fill="#9EA3A7"/>
<path d="M52.1144 1.67922L53.2237 3.34337V3.34337L52.1144 1.67922ZM74.1212 4.45202L74.178 6.45122L74.1212 4.45202ZM83.5447 10.3527L85.3707 9.53668V9.53668L83.5447 10.3527ZM98.3475 34.9786L96.6472 36.0316L98.3475 34.9786ZM95.836 55.6318L93.8515 55.8806V55.8806L95.836 55.6318ZM86.1696 72.5296L88.1102 73.0134L86.1696 72.5296ZM63.2071 83.4857L62.0978 81.8215L63.2071 83.4857ZM52.1139 83.4857L51.0046 85.1498L52.1139 83.4857ZM39.4873 80.4067L39.5443 82.4059L39.4873 80.4067ZM29.3081 72.0223L27.3335 72.3396L29.3081 72.0223ZM16.4976 45.9158L18.1979 44.8628H18.1979L16.4976 45.9158ZM21.7098 22.1391L23.6928 22.3991L21.7098 22.1391ZM32.2868 9.89959L30.5125 8.97665L32.2868 9.89959ZM47.3963 80.3409L48.5056 78.6767L47.3963 80.3409ZM64.451 82.6565L63.3416 80.9924L64.451 82.6565ZM86.4973 71.2149L84.5567 70.7311L86.4973 71.2149ZM31.109 12.164L29.3346 11.2411L31.109 12.164ZM95.7114 54.6378L93.7269 54.8867L95.7114 54.6378ZM97.8425 34.1631L96.1421 35.2161L97.8425 34.1631ZM83.6947 10.6884L85.5207 9.8724L83.6947 10.6884ZM64.3169 0.0150631C60.2863 -2.67169 55.0356 -2.67169 51.0051 0.0150611L53.2237 3.34337C55.9108 1.55221 59.4112 1.55221 62.0982 3.34338L64.3169 0.0150631ZM74.0644 2.45283L72.9156 2.48549L73.0292 6.48387L74.178 6.45122L74.0644 2.45283ZM85.3707 9.53668C83.3907 5.10633 78.9242 2.31469 74.0644 2.45283L74.178 6.45122C77.4299 6.35878 80.4036 8.226 81.7187 11.1687L85.3707 9.53668ZM85.5207 9.8724L85.3707 9.53668L81.7187 11.1687L81.8688 11.5044L85.5207 9.8724ZM97.4137 25.4767C97.4644 20.605 94.548 16.19 90.0477 14.2989L88.4981 17.9866C91.5095 19.252 93.4476 22.1994 93.4139 25.4351L97.4137 25.4767ZM100.048 33.9257L99.5429 33.1101L96.1421 35.2161L96.6472 36.0316L100.048 33.9257ZM99.5251 47.3341C102.415 43.3881 102.623 38.0834 100.048 33.9257L96.6472 36.0316C98.3631 38.8026 98.2255 42.339 96.2981 44.9705L99.5251 47.3341ZM97.8205 55.3829L97.6958 54.389L93.7269 54.8867L93.8515 55.8806L97.8205 55.3829ZM91.7688 67.3353C96.0299 64.9457 98.4273 60.2222 97.8205 55.3829L93.8515 55.8806C94.2548 59.0962 92.6624 62.2481 89.8123 63.8465L91.7688 67.3353ZM88.1102 73.0134L88.4379 71.6987L84.5567 70.7311L84.2289 72.0459L88.1102 73.0134ZM75.1008 82.0093C81.086 82.6858 86.6557 78.8478 88.1102 73.0134L84.2289 72.0459C83.2638 75.9176 79.5586 78.4877 75.5502 78.0346L75.1008 82.0093ZM64.3164 85.1498L65.5603 84.3207L63.3416 80.9924L62.0978 81.8215L64.3164 85.1498ZM51.0046 85.1498C55.0352 87.8366 60.2859 87.8366 64.3164 85.1498L62.0978 81.8215C59.4107 83.6127 55.9103 83.6127 53.2233 81.8215L51.0046 85.1498ZM46.2869 82.0051L51.0046 85.1498L53.2233 81.8215L48.5056 78.6767L46.2869 82.0051ZM39.5443 82.4059L46.9055 82.196L46.7915 78.1976L39.4303 78.4075L39.5443 82.4059ZM27.3335 72.3396C28.288 78.2804 33.519 82.5777 39.5443 82.4059L39.4303 78.4075C35.3941 78.5226 31.9161 75.6465 31.2828 71.7051L27.3335 72.3396ZM27.1686 71.3134L27.3335 72.3396L31.2828 71.7051L31.1179 70.6789L27.1686 71.3134ZM25.7363 63.5159C22.7824 62.1201 20.9746 59.0893 21.1508 55.8564L17.1568 55.6386C16.8915 60.5055 19.6124 65.0462 24.0274 67.1325L25.7363 63.5159ZM14.7972 46.9688L15.0451 47.3691L18.4458 45.2631L18.1979 44.8628L14.7972 46.9688ZM15.3197 33.5604C12.4296 37.5064 12.2224 42.8111 14.7972 46.9688L18.1979 44.8628C16.4819 42.0919 16.6194 38.5554 18.5468 35.9239L15.3197 33.5604ZM19.7267 21.8791L19.5928 22.9008L23.5588 23.4208L23.6928 22.3991L19.7267 21.8791ZM28.5726 11.8508C23.8591 13.097 20.3592 17.055 19.7267 21.8791L23.6928 22.3991C24.1128 19.1961 26.44 16.5521 29.595 15.7179L28.5726 11.8508ZM30.5125 8.97665L29.3346 11.2411L32.8833 13.0869L34.0611 10.8225L30.5125 8.97665ZM42.2121 2.57461C37.3714 2.15124 32.7509 4.67348 30.5125 8.97665L34.0611 10.8225C35.5483 7.96361 38.6254 6.27618 41.8636 6.5594L42.2121 2.57461ZM51.0051 0.0150606L50.2482 0.51961L52.4668 3.84792L53.2237 3.34337L51.0051 0.0150606ZM41.8636 6.5594C45.6034 6.88649 49.3431 5.93017 52.4668 3.84792L50.2482 0.51961C47.8807 2.09772 45.0465 2.82251 42.2121 2.57461L41.8636 6.5594ZM48.5056 78.6767C47.9264 78.2907 47.3005 78.1831 46.7915 78.1977L46.9056 82.196C46.7829 82.1995 46.5445 82.1767 46.2869 82.0051L48.5056 78.6767ZM75.5502 78.0346C71.2592 77.5495 66.9348 78.5972 63.3416 80.9924L65.5603 84.3207C68.3682 82.4489 71.7476 81.6302 75.1008 82.0093L75.5502 78.0346ZM89.8123 63.8465C87.1865 65.319 85.2849 67.81 84.5567 70.7311L88.4379 71.6987C88.8994 69.8473 90.1046 68.2686 91.7688 67.3353L89.8123 63.8465ZM29.595 15.7179C31.0127 15.3431 32.2066 14.3879 32.8833 13.0869L29.3346 11.2411C29.1778 11.5426 28.9012 11.7639 28.5726 11.8508L29.595 15.7179ZM96.2981 44.9705C94.2064 47.8264 93.2864 51.3742 93.7269 54.8867L97.6958 54.389C97.3824 51.89 98.0369 49.3659 99.5251 47.3341L96.2981 44.9705ZM18.5468 35.9239C21.242 32.2438 22.9659 27.9436 23.5588 23.4208L19.5928 22.9008C19.0872 26.7567 17.6176 30.4229 15.3197 33.5604L18.5468 35.9239ZM93.4139 25.4351C93.3779 28.8881 94.3241 32.2802 96.1421 35.2161L99.5429 33.1101C98.124 30.8189 97.3856 28.1716 97.4137 25.4767L93.4139 25.4351ZM21.1508 55.8564C21.3539 52.1317 20.4097 48.4344 18.4458 45.2631L15.0451 47.3691C16.5782 49.8447 17.3153 52.731 17.1568 55.6386L21.1508 55.8564ZM81.8688 11.5044C83.1755 14.4284 85.5455 16.7458 88.4981 17.9866L90.0477 14.2989C88.0315 13.4516 86.413 11.8691 85.5207 9.8724L81.8688 11.5044ZM31.1179 70.6789C30.6152 67.5498 28.6017 64.8699 25.7363 63.5159L24.0274 67.1325C25.6999 67.9228 26.8751 69.487 27.1686 71.3134L31.1179 70.6789ZM62.0982 3.34338C65.3288 5.49685 69.1483 6.59419 73.0292 6.48387L72.9156 2.48549C69.8627 2.57227 66.8581 1.70906 64.3169 0.0150633L62.0982 3.34338Z" fill="black" mask="url(#path-5-inside-3_669_57)"/>
<circle cx="58" cy="43" r="29" fill="#5D6266" stroke="black" stroke-width="2"/>
<mask id="path-8-outside-4_669_57" maskUnits="userSpaceOnUse" x="44" y="25" width="28" height="36" fill="black">
<rect fill="white" x="44" y="25" width="28" height="36"/>
<path d="M69.2569 59H46.5102L46.3502 58.68C46.2613 58.4311 46.2169 57.2311 46.2169 55.08C46.2169 52.5378 47.9502 49.9156 51.4169 47.2133C54.2969 44.8489 56.3502 42.8844 57.5769 41.32C58.8035 39.7556 59.4169 38.2178 59.4169 36.7067C59.4169 35.8356 59.2213 35.0089 58.8302 34.2267C58.1369 32.8222 57.1058 32.12 55.7369 32.12C54.5813 32.12 53.6035 32.2444 52.8035 32.4933L51.5235 37.9867L46.6702 37.96L46.2702 31.6933C48.208 28.76 51.9147 27.2933 57.3902 27.2933C58.6347 27.2933 59.7902 27.3822 60.8569 27.56C61.9235 27.7378 62.9458 28.0489 63.9235 28.4933C64.9191 28.9378 65.7635 29.4978 66.4569 30.1733C67.1502 30.8489 67.7013 31.72 68.1102 32.7867C68.5191 33.8356 68.7235 35.0444 68.7235 36.4133C68.7235 37.4089 68.5635 38.36 68.2435 39.2667C67.9413 40.1556 67.5235 40.9467 66.9902 41.64C66.4747 42.3156 65.8524 42.9911 65.1235 43.6667C64.3947 44.3422 63.6302 44.9467 62.8302 45.48C62.048 46.0133 61.2035 46.5822 60.2969 47.1867C59.408 47.7911 58.5547 48.3689 57.7369 48.92C56.9369 49.4533 56.128 50.0667 55.3102 50.76C54.5102 51.4533 53.8258 52.1467 53.2569 52.84L69.2569 51.64V59Z"/>
</mask>
<path d="M69.2569 59H46.5102L46.3502 58.68C46.2613 58.4311 46.2169 57.2311 46.2169 55.08C46.2169 52.5378 47.9502 49.9156 51.4169 47.2133C54.2969 44.8489 56.3502 42.8844 57.5769 41.32C58.8035 39.7556 59.4169 38.2178 59.4169 36.7067C59.4169 35.8356 59.2213 35.0089 58.8302 34.2267C58.1369 32.8222 57.1058 32.12 55.7369 32.12C54.5813 32.12 53.6035 32.2444 52.8035 32.4933L51.5235 37.9867L46.6702 37.96L46.2702 31.6933C48.208 28.76 51.9147 27.2933 57.3902 27.2933C58.6347 27.2933 59.7902 27.3822 60.8569 27.56C61.9235 27.7378 62.9458 28.0489 63.9235 28.4933C64.9191 28.9378 65.7635 29.4978 66.4569 30.1733C67.1502 30.8489 67.7013 31.72 68.1102 32.7867C68.5191 33.8356 68.7235 35.0444 68.7235 36.4133C68.7235 37.4089 68.5635 38.36 68.2435 39.2667C67.9413 40.1556 67.5235 40.9467 66.9902 41.64C66.4747 42.3156 65.8524 42.9911 65.1235 43.6667C64.3947 44.3422 63.6302 44.9467 62.8302 45.48C62.048 46.0133 61.2035 46.5822 60.2969 47.1867C59.408 47.7911 58.5547 48.3689 57.7369 48.92C56.9369 49.4533 56.128 50.0667 55.3102 50.76C54.5102 51.4533 53.8258 52.1467 53.2569 52.84L69.2569 51.64V59Z" fill="white"/>
<path d="M69.2569 59V61H71.2569V59H69.2569ZM46.5102 59L44.7214 59.8944L45.2741 61H46.5102V59ZM46.3502 58.68L44.4667 59.3527L44.5073 59.4664L44.5614 59.5744L46.3502 58.68ZM51.4169 47.2133L52.6464 48.7907L52.6664 48.7752L52.6859 48.7591L51.4169 47.2133ZM58.8302 34.2267L57.0368 35.112L57.0414 35.1211L58.8302 34.2267ZM52.8035 32.4933L52.2094 30.5836L51.1157 30.9239L50.8557 32.0395L52.8035 32.4933ZM51.5235 37.9867L51.5126 39.9866L53.1091 39.9954L53.4714 38.4405L51.5235 37.9867ZM46.6702 37.96L44.6743 38.0874L44.7931 39.9497L46.6592 39.96L46.6702 37.96ZM46.2702 31.6933L44.6015 30.5909L44.2315 31.1509L44.2743 31.8207L46.2702 31.6933ZM60.8569 27.56L61.1857 25.5872L61.1857 25.5872L60.8569 27.56ZM63.9235 28.4933L63.0959 30.3141L63.1082 30.3196L63.9235 28.4933ZM66.4569 30.1733L67.8526 28.7409L67.8526 28.7409L66.4569 30.1733ZM68.1102 32.7867L66.2427 33.5026L66.2468 33.5131L68.1102 32.7867ZM68.2435 39.2667L66.3576 38.601L66.3537 38.6119L66.35 38.6229L68.2435 39.2667ZM66.9902 41.64L65.4049 40.4206L65.4003 40.4267L66.9902 41.64ZM65.1235 43.6667L66.4831 45.1335L66.4831 45.1335L65.1235 43.6667ZM62.8302 45.48L61.7208 43.8159L61.7121 43.8217L61.7035 43.8275L62.8302 45.48ZM60.2969 47.1867L59.1875 45.5226L59.1798 45.5277L59.1723 45.5328L60.2969 47.1867ZM57.7369 48.92L58.8463 50.5841L58.8546 50.5785L57.7369 48.92ZM55.3102 50.76L54.0168 49.2345L54.0086 49.2415L54.0003 49.2486L55.3102 50.76ZM53.2569 52.84L51.7107 51.5714L48.7466 55.1839L53.4065 54.8344L53.2569 52.84ZM69.2569 51.64H71.2569V49.4844L69.1073 49.6456L69.2569 51.64ZM69.2569 57H46.5102V61H69.2569V57ZM48.2991 58.1056L48.1391 57.7856L44.5614 59.5744L44.7214 59.8944L48.2991 58.1056ZM48.2337 58.0073C48.3087 58.2173 48.3026 58.3402 48.2835 58.1317C48.2716 58.0026 48.2593 57.8029 48.2488 57.5193C48.228 56.956 48.2169 56.1469 48.2169 55.08H44.2169C44.2169 56.1643 44.228 57.0307 44.2516 57.6674C44.2633 57.9837 44.2788 58.2652 44.3003 58.4983C44.3144 58.652 44.3473 59.0182 44.4667 59.3527L48.2337 58.0073ZM48.2169 55.08C48.2169 53.4871 49.3229 51.3814 52.6464 48.7907L50.1873 45.6359C46.5776 48.4497 44.2169 51.5885 44.2169 55.08H48.2169ZM52.6859 48.7591C55.599 46.3676 57.7874 44.2929 59.1508 42.5541L56.003 40.0859C54.9131 41.476 52.9948 43.3302 50.1478 45.6675L52.6859 48.7591ZM59.1508 42.5541C60.5661 40.749 61.4169 38.7888 61.4169 36.7067H57.4169C57.4169 37.6467 57.041 38.7621 56.003 40.0859L59.1508 42.5541ZM61.4169 36.7067C61.4169 35.5238 61.1485 34.391 60.6191 33.3322L57.0414 35.1211C57.2942 35.6267 57.4169 36.1473 57.4169 36.7067H61.4169ZM60.6236 33.3413C60.1627 32.4077 59.5272 31.5824 58.6627 30.9936C57.783 30.3945 56.7821 30.12 55.7369 30.12V34.12C56.0605 34.12 56.2597 34.1966 56.4111 34.2997C56.5776 34.4131 56.8044 34.6412 57.0368 35.112L60.6236 33.3413ZM55.7369 30.12C54.4504 30.12 53.2592 30.257 52.2094 30.5836L53.3977 34.403C53.9479 34.2319 54.7123 34.12 55.7369 34.12V30.12ZM50.8557 32.0395L49.5757 37.5328L53.4714 38.4405L54.7514 32.9472L50.8557 32.0395ZM51.5345 35.9867L46.6812 35.96L46.6592 39.96L51.5126 39.9866L51.5345 35.9867ZM48.6661 37.8326L48.2661 31.5659L44.2743 31.8207L44.6743 38.0874L48.6661 37.8326ZM47.939 32.7957C49.3333 30.6851 52.1954 29.2933 57.3902 29.2933V25.2933C51.6339 25.2933 47.0827 26.8349 44.6015 30.5909L47.939 32.7957ZM57.3902 29.2933C58.5406 29.2933 59.5849 29.3756 60.5281 29.5328L61.1857 25.5872C59.9956 25.3889 58.7287 25.2933 57.3902 25.2933V29.2933ZM60.5281 29.5328C61.4237 29.6821 62.2782 29.9424 63.0959 30.3141L64.7511 26.6726C63.6134 26.1554 62.4233 25.7935 61.1857 25.5872L60.5281 29.5328ZM63.1082 30.3196C63.9156 30.68 64.5565 31.1141 65.0611 31.6058L67.8526 28.7409C66.9706 27.8815 65.9226 27.1955 64.7388 26.6671L63.1082 30.3196ZM65.0611 31.6058C65.5132 32.0463 65.9189 32.6579 66.2427 33.5025L69.9777 32.0708C69.4837 30.7821 68.7872 29.6515 67.8526 28.7409L65.0611 31.6058ZM66.2468 33.5131C66.5482 34.2864 66.7235 35.2408 66.7235 36.4133H70.7235C70.7235 34.8481 70.49 33.3848 69.9736 32.0603L66.2468 33.5131ZM66.7235 36.4133C66.7235 37.1903 66.5994 37.9157 66.3576 38.601L70.1295 39.9323C70.5276 38.8043 70.7235 37.6275 70.7235 36.4133H66.7235ZM66.35 38.6229C66.1131 39.3195 65.7952 39.9132 65.405 40.4206L68.5755 42.8594C69.2519 41.9801 69.7695 40.9916 70.1371 39.9105L66.35 38.6229ZM65.4003 40.4267C64.9646 40.9975 64.4227 41.5893 63.764 42.1998L66.4831 45.1335C67.2822 44.3929 67.9847 43.6336 68.5801 42.8533L65.4003 40.4267ZM63.764 42.1998C63.1105 42.8055 62.4294 43.3435 61.7208 43.8159L63.9396 47.1441C64.831 46.5498 65.6788 45.879 66.4831 45.1335L63.764 42.1998ZM61.7035 43.8275C60.9278 44.3564 60.0892 44.9214 59.1875 45.5226L61.4063 48.8508C62.3179 48.243 63.1681 47.6702 63.9569 47.1325L61.7035 43.8275ZM59.1723 45.5328C58.2855 46.1358 57.4344 46.712 56.6192 47.2615L58.8546 50.5785C59.6749 50.0257 60.5305 49.4464 61.4215 48.8405L59.1723 45.5328ZM56.6275 47.2559C55.7568 47.8364 54.8867 48.497 54.0168 49.2345L56.6036 52.2855C57.3693 51.6363 58.117 51.0703 58.8463 50.5841L56.6275 47.2559ZM54.0003 49.2486C53.1297 50.0032 52.3628 50.7766 51.7107 51.5714L54.803 54.1086C55.2887 53.5167 55.8907 52.9035 56.6201 52.2714L54.0003 49.2486ZM53.4065 54.8344L69.4065 53.6344L69.1073 49.6456L53.1073 50.8456L53.4065 54.8344ZM67.2569 51.64V59H71.2569V51.64H67.2569Z" fill="black" mask="url(#path-8-outside-4_669_57)"/>
<path fill-rule="evenodd" clip-rule="evenodd" d="M78.3939 28.0122C79.1553 26.8605 76.4113 23.7046 72.265 20.9634C68.1186 18.2222 64.1401 16.9337 63.3786 18.0854C62.7209 19.0802 64.379 19.9624 65.4871 20.4032C66.9145 20.971 68.5758 21.8466 70.265 22.9634C71.9544 24.0803 73.411 25.266 74.4925 26.3569C75.6079 27.4821 77.5201 29.3339 78.3939 28.0122Z" fill="white"/>
<ellipse cx="79.739" cy="29.788" rx="1" ry="1.5" transform="rotate(138.97 79.739 29.788)" fill="white"/>
</svg>
